<?xml version="1.0" encoding="utf-8"?>
<svg version="1.1" xmlns="http://www.w3.org/2000/svg" viewBox="0 0 512 512" width="128" height="128" style="stroke: none; fill: #CC351B">
    <path d="M256.4,512c-24.5,0-49,0-73.5,0c-1.3-0.3-2.6-0.6-4-0.8c-9.7-1.4-19.6-2-29.2-4.2c-42.3-9.6-77.2-31.3-105.2-64.3
		c-3-3.5-5.7-7.3-8.6-11.1c9.1-0.7,17.6-1.1,26-2.1c22.5-2.9,44.5-8.1,65.7-16.2c36.3-13.7,68.4-34,96.4-60.8
		c26.5-25.4,47.3-54.9,62.4-88.4c14.3-31.6,22.6-64.8,24.4-99.4c0.8-16-0.3-32.1-1.3-48.2c-1.2-19.4-5.9-38.3-11.8-56.8
		c-6.7-21-16-40.8-27.2-59.7c19.5,0,39,0,58.5,0c1.3,0.3,2.6,0.6,4,0.8c8.5,1.1,17.1,1.6,25.5,3.3c44.9,9.5,82,32,110.9,67.8
		c23.3,28.8,37,61.7,41,98.5c0.4,3.9,1,7.8,1.5,11.7c0,24.7,0,49.5,0,74.2c-6.6,0.9-13.3,1.8-19.9,2.8
		c-39.2,6.3-75.2,20.7-108.4,42.3c-27.5,18-51.2,40.1-71,66.3c-20.3,26.9-35.5,56.4-45.3,88.7C261.9,474.7,258.5,493.2,256.4,512z"
    />
    <path d="M0,329.8C0,220,0,110.1,0,0c80.2,0,160.4,0,240.6,0c0.1,1,0.1,2,0.4,2.9c6.9,21.7,11.6,43.9,13.2,66.7
		c1.4,19.1,1.2,38.1-1.1,57.1c-2.6,21.1-7.5,41.8-14.9,61.8c-15.7,42.5-39.9,79.3-73,110.2c-31.6,29.5-67.9,51-109.2,63.4
		c-14.5,4.4-29.5,6.9-44.2,10.2c-3,0.7-4.8-0.3-5.4-3.7c-1.5-9.1-3.3-18.1-4.8-27.1C0.9,337.7,0.5,333.8,0,329.8z M162.9,240
		c0.5-0.3,0.9-0.4,1.2-0.6c0.6-0.5,1.1-1.1,1.6-1.6c6.6-7.3,11.7-15.6,14.7-25c6.7-21.3,5.4-41.6-10.9-58.5
		c-28.3-29.5-57-58.8-85.6-88.1c-0.9-0.9-1.9-1.8-3.1-2.9c-1.4,1.6-2.6,2.8-3.7,4.2c-9.2,11.8-13.5,25.3-13.6,40.3
		c-0.2,19.3,5.5,36.1,19.2,50.2c26.1,26.5,51.9,53.3,77.8,80C161.3,238.6,162.2,239.3,162.9,240z"/>
    <path d="M325.3,512c2.5-7.4,4.6-14.9,7.5-22.2c13.1-32.6,31.7-61.8,55.8-87.5c31.5-33.7,69-58.2,112.4-73.8
		c3.6-1.3,7.4-2.2,11-3.2c0,62.2,0,124.4,0,186.7C449.8,512,387.6,512,325.3,512z"/>
</svg>
